PathFileType	4	(X/Y/Z)	/Users/itak/Documents/Research/Walk-IL/dataset/trc/00489_00167.trc
DataRate	CameraRate	NumFrames	NumMarkers	Units	OrigDataRate	OrigDataStartFrame	OrigNumFrames
100.000000	100.000000	4	53	mm	100.000000	290	581
Frame#	Time	RPSI			LPSI			L3			STRN			T10			C7			CLAV			RBAK			LBAK			LSHO			LUPA			LAEL			LAOL			LWTS			LWPS			LFRA			LIFD			LHPS			LHTS			RSHO			RUPA			RAEL			RAOL			RWTS			RWPS			RFRA			RIFD			RHTS			RHPS			RBHD			LFHD			RFHD			LBHD			LHIP			RHIP			RASI			LASI			LKNE			LTHI			LANK			LTIP			LTOE			LMT1			LMT5			LHEE			RKNE			RTHI			RANK			RTIP			RTOE			RMT1			RMT5			RHEE			
		X1	Y1	Z1	X2	Y2	Z2	X3	Y3	Z3	X4	Y4	Z4	X5	Y5	Z5	X6	Y6	Z6	X7	Y7	Z7	X8	Y8	Z8	X9	Y9	Z9	X10	Y10	Z10	X11	Y11	Z11	X12	Y12	Z12	X13	Y13	Z13	X14	Y14	Z14	X15	Y15	Z15	X16	Y16	Z16	X17	Y17	Z17	X18	Y18	Z18	X19	Y19	Z19	X20	Y20	Z20	X21	Y21	Z21	X22	Y22	Z22	X23	Y23	Z23	X24	Y24	Z24	X25	Y25	Z25	X26	Y26	Z26	X27	Y27	Z27	X28	Y28	Z28	X29	Y29	Z29	X30	Y30	Z30	X31	Y31	Z31	X32	Y32	Z32	X33	Y33	Z33	X34	Y34	Z34	X35	Y35	Z35	X36	Y36	Z36	X37	Y37	Z37	X38	Y38	Z38	X39	Y39	Z39	X40	Y40	Z40	X41	Y41	Z41	X42	Y42	Z42	X43	Y43	Z43	X44	Y44	Z44	X45	Y45	Z45	X46	Y46	Z46	X47	Y47	Z47	X48	Y48	Z48	X49	Y49	Z49	X50	Y50	Z50	X51	Y51	Z51	X52	Y52	Z52	X53	Y53	Z53	

291	2.9	-759.2412719726562	913.737548828125	184.1790466308594	-726.1810913085938	915.1159057617188	45.53157424926758	-731.5052490234375	1017.98876953125	123.0582885742188	-465.0175170898438	1218.157470703125	176.5809936523438	-747.0896606445312	1141.411499023438	108.9510116577148	-683.640625	1412.757568359375	131.64892578125	-501.3531799316406	1330.197509765625	161.9311676025391	-765.1209716796875	1292.585083007812	209.0821075439453	-693.8914184570312	1362.532836914062	26.37762451171875	-575.8012084960938	1381.505737304688	-25.85497093200684	-560.0264892578125	1262.008911132812	-120.5127410888672	-527.8978271484375	1050.006469726562	-153.0810699462891	-617.9528198242188	1030.588500976562	-104.570556640625	-450.4762878417969	850.2687377929688	-94.88709259033203	-482.1792297363281	834.8853759765625	-159.9470520019531	-502.0690002441406	963.2152709960938	-159.3149261474609	-435.1234436035156	689.6698608398438	-103.8619003295898	-467.835205078125	758.4931640625	-159.6626281738281	-425.6094665527344	766.8917236328125	-101.8283004760742	-655.2403564453125	1383.7158203125	302.5224609375	-694.4512939453125	1327.260009765625	371.2501831054688	-726.0342407226562	1048.235717773438	448.1972351074219	-766.3403930664062	1028.308837890625	397.3891906738281	-616.4542236328125	838.2083129882812	434.7868041992188	-690.0146484375	830.2542724609375	483.3122863769531	-724.44140625	990.2483520507812	462.4564514160156	-627.368408203125	681.8770141601562	446.2249450683594	-607.9698486328125	739.9654541015625	450.9170532226562	-678.4149780273438	741.7435913085938	484.8652954101562	-561.571533203125	1615.93896484375	230.5457305908203	-481.0797424316406	1614.925537109375	39.98136138916016	-440.7457580566406	1623.466430664062	164.2894897460938	-631.6363525390625	1609.857421875	67.02043914794922	-568.3152465820312	818.880615234375	-41.76250839233398	-655.0884399414062	831.3504028320312	350.7984619140625	-550.1642456054688	885.2391357421875	304.9115295410156	-488.9548950195312	860.201171875	56.36605453491211	-609.6881103515625	403.5580749511719	-28.38158226013184	-553.61279296875	554.1049194335938	-24.03935623168945	-950.2708129882812	160.8419189453125	-128.8170318603516	-719.0200805664062	294.6042785644531	-76.15592956542969	-842.083984375	40.17581558227539	16.80429077148438	-897.7125244140625	68.93719482421875	14.37723064422607	-858.0762329101562	53.30427169799805	-87.80545043945312	-989.4620971679688	208.5981140136719	-80.28971099853516	-484.8539123535156	471.6868896484375	365.1150207519531	-575.0380249023438	716.5496215820312	380.93310546875	-500.7734069824219	37.17358016967773	377.7599792480469	-463.5661315917969	326.8712768554688	381.5921020507812	-277.5641784667969	45.39650726318359	359.5258178710938	-336.2000427246094	52.19857788085938	316.8709716796875	-372.5922241210938	38.96102523803711	422.6017456054688	-558.8538818359375	33.91693496704102	323.1149597167969	
292	2.91	-749.4367065429688	915.5723876953125	190.7040405273438	-718.6694946289062	915.0238647460938	51.47626113891602	-722.5872192382812	1019.843994140625	129.7233123779297	-455.3616638183594	1220.064086914062	179.4362335205078	-738.1801147460938	1143.2275390625	115.9912414550781	-674.7852783203125	1414.470825195312	137.9744720458984	-491.8285827636719	1332.195678710938	165.5127716064453	-754.642822265625	1294.173828125	216.6875152587891	-686.4931640625	1364.522216796875	32.71440505981445	-569.0388793945312	1383.73095703125	-20.97191429138184	-554.2273559570312	1264.344360351562	-115.8639984130859	-523.7788696289062	1051.979370117188	-148.4844207763672	-613.225830078125	1033.450805664062	-98.50575256347656	-449.2562561035156	849.6463012695312	-93.64226531982422	-482.537353515625	835.928955078125	-158.3444671630859	-499.6065063476562	964.8333740234375	-155.9103851318359	-439.59423828125	688.46826171875	-104.7317047119141	-470.8178405761719	759.033447265625	-159.088134765625	-427.3370971679688	765.2180786132812	-101.7920074462891	-643.695556640625	1385.556518554688	308.3870239257812	-681.7327270507812	1329.221557617188	377.76904296875	-712.139404296875	1050.095581054688	454.9013671875	-752.9331665039062	1030.255859375	404.4559631347656	-603.7562866210938	839.4215698242188	440.5816345214844	-676.9456787109375	831.9185180664062	489.6634521484375	-710.58642578125	992.0873413085938	469.1274108886719	-615.3604125976562	683.1513671875	452.4900512695312	-595.6248168945312	741.1505737304688	456.9278869628906	-665.7894287109375	743.3990478515625	491.3344116210938	-551.7429809570312	1617.686279296875	235.3374176025391	-474.3857421875	1617.094116210938	43.49400329589844	-432.0409545898438	1625.671875	167.1436157226562	-624.445068359375	1611.504760742188	72.92519378662109	-561.0673828125	818.2462158203125	-36.64598083496094	-643.283203125	833.4486694335938	356.1505432128906	-538.9860229492188	886.5990600585938	308.631591796875	-480.7363586425781	861.5032958984375	59.61090469360352	-590.4403076171875	402.4790344238281	-22.89924049377441	-537.8682861328125	553.7940063476562	-19.4229736328125	-939.0897216796875	171.6007537841797	-120.2881469726562	-703.023681640625	296.4202575683594	-69.95303344726562	-833.126220703125	40.56992340087891	15.93328094482422	-887.426025390625	71.71999359130859	17.69398307800293	-850.8831787109375	58.34197616577148	-85.77020263671875	-975.3047485351562	218.8706817626953	-69.51765441894531	-478.0350036621094	471.4838256835938	367.5792236328125	-564.0827026367188	717.8609008789062	384.9993286132812	-500.5265197753906	37.47731399536133	377.592529296875	-459.0083312988281	326.2848205566406	383.1436462402344	-277.2508239746094	44.71926879882812	359.4133911132812	-335.9136962890625	52.12818145751953	316.8617858886719	-372.4521484375	38.96578598022461	422.8091735839844	-558.6656494140625	34.25000762939453	323.0770874023438	
293	2.92	-739.9138793945312	917.58642578125	197.0159454345703	-711.575927734375	914.9432373046875	57.23967361450195	-713.9764404296875	1021.732299804688	136.2816925048828	-445.8541564941406	1221.831665039062	181.8511505126953	-729.3675537109375	1145.134399414062	123.0608520507812	-665.9747314453125	1416.232666015625	144.2443389892578	-482.3870544433594	1334.077026367188	168.7528991699219	-744.1181640625	1295.833251953125	224.3105316162109	-679.3211669921875	1366.550659179688	39.04206085205078	-562.5914306640625	1385.927124023438	-16.26755905151367	-548.8565673828125	1266.663818359375	-111.4084777832031	-519.7703857421875	1054.0205078125	-144.1448211669922	-608.6309814453125	1036.243530273438	-92.83164215087891	-447.9629821777344	849.303955078125	-92.35271453857422	-482.6243286132812	837.1963500976562	-156.7292633056641	-497.0949096679688	966.61376953125	-152.6427307128906	-444.1973571777344	687.6646118164062	-105.2089080810547	-473.6007385253906	759.8443603515625	-158.3148956298828	-429.0971374511719	763.8421630859375	-101.4750137329102	-631.9534301757812	1387.443359375	314.0713806152344	-668.758056640625	1331.290649414062	384.1781921386719	-698.0408325195312	1052.086303710938	461.6249694824219	-739.3466796875	1032.30859375	411.5973815917969	-590.7249145507812	840.86328125	446.2889709472656	-663.4710693359375	833.7179565429688	496.0165710449219	-696.4674072265625	994.0587158203125	475.8324890136719	-602.8247680664062	684.6348266601562	458.592041015625	-582.843505859375	742.5587158203125	462.7826538085938	-652.657470703125	745.1892700195312	497.7436828613281	-542.001708984375	1619.447265625	239.9530792236328	-467.8657836914062	1619.32177734375	46.85233688354492	-423.5006103515625	1627.94677734375	169.7984619140625	-617.3589477539062	1613.150390625	78.70140838623047	-554.3325805664062	817.6262817382812	-31.83673858642578	-631.800048828125	835.5587158203125	361.1145935058594	-528.1162109375	887.8576049804688	311.8860778808594	-472.8815307617188	862.7472534179688	62.35071563720703	-571.0629272460938	401.8091735839844	-17.39420318603516	-522.21484375	553.7503662109375	-15.09478378295898	-927.0778198242188	182.1244354248047	-110.6271057128906	-686.6678466796875	298.5089721679688	-63.36061859130859	-821.3900756835938	41.48225784301758	15.12563896179199	-874.6744995117188	74.81027221679688	21.37979316711426	-841.7598876953125	64.57081604003906	-83.46627807617188	-960.6193237304688	228.2079162597656	-57.48541641235352	-471.9640502929688	471.2278137207031	369.7756958007812	-553.7051391601562	719.0712280273438	388.6459045410156	-500.3387451171875	37.72379684448242	377.4695434570312	-455.0214538574219	325.7444152832031	384.5380859375	-277.0370788574219	44.36949157714844	359.4326782226562	-335.711181640625	52.19620513916016	316.9108276367188	-372.3618774414062	38.94521331787109	422.9862976074219	-558.5114135742188	34.54096603393555	323.0186157226562	
294	2.93	-730.6730346679688	919.7742309570312	203.0511627197266	-704.8333740234375	914.9456176757812	62.7833137512207	-705.64404296875	1023.660705566406	142.7203063964844	-436.5070495605469	1223.432861328125	183.8110809326172	-720.7332153320312	1147.112915039062	130.1304016113281	-657.197998046875	1418.024658203125	150.4477996826172	-473.0488586425781	1335.808349609375	171.6332702636719	-733.5609741210938	1297.554565429688	231.9296264648438	-672.362060546875	1368.591430664062	45.36079788208008	-556.4616088867188	1388.058349609375	-11.75948333740234	-543.958984375	1268.918212890625	-107.1560287475586	-515.9298095703125	1056.087158203125	-140.0973510742188	-604.2333984375	1038.915405273438	-87.57733917236328	-446.5647888183594	849.2279663085938	-91.00476837158203	-482.384765625	838.63671875	-155.1009979248047	-494.5496520996094	968.5045776367188	-149.5385437011719	-448.7491455078125	687.2587890625	-105.2448425292969	-476.0537109375	760.8807373046875	-157.331298828125	-430.7921447753906	762.7775268554688	-100.8529281616211	-620.0031127929688	1389.328979492188	319.552734375	-655.5183715820312	1333.41259765625	390.4494934082031	-683.7230224609375	1054.16357421875	468.3687438964844	-725.5731201171875	1034.424926757812	418.8223571777344	-577.35791015625	842.4909057617188	451.8885192871094	-649.5775756835938	835.6066284179688	502.3726196289062	-682.0762329101562	996.1211547851562	482.5777587890625	-589.7499389648438	686.2844848632812	464.509033203125	-569.63720703125	744.1505737304688	468.4444885253906	-639.0014038085938	747.0647583007812	504.0867614746094	-532.3434448242188	1621.195068359375	244.3852081298828	-461.522705078125	1621.5849609375	50.04840850830078	-415.1233215332031	1630.268676757812	172.2420959472656	-610.3759155273438	1614.763061523438	84.34789276123047	-548.0584106445312	817.1150512695312	-27.37538719177246	-620.7022094726562	837.65673828125	365.6509094238281	-517.5720825195312	889.0379638671875	314.6852111816406	-465.3782348632812	863.9710083007812	64.61170959472656	-551.7171630859375	401.7374572753906	-11.9695291519165	-506.7702026367188	554.1185302734375	-11.11012840270996	-914.2817993164062	192.0870056152344	-99.85189819335938	-670.0990600585938	301.019287109375	-56.49802017211914	-806.9213256835938	42.97842788696289	14.5576057434082	-859.4317016601562	78.01755523681641	25.43493843078613	-830.5773315429688	71.77497863769531	-80.77186584472656	-945.4610595703125	236.3057861328125	-44.20253372192383	-466.5326843261719	470.9717407226562	371.7153015136719	-543.8968505859375	720.2110595703125	391.8522644042969	-500.1841735839844	37.95210266113281	377.3693542480469	-451.5122985839844	325.2579040527344	385.7691040039062	-276.865234375	44.19341659545898	359.563720703125	-335.5419311523438	52.31872177124023	317.0051879882812	-372.2997131347656	38.89180755615234	423.1454772949219	-558.3538818359375	34.8151969909668	322.9221801757812	
